# xmcd
#
# Track frame offsets: 
#        150
#        21835
#        34454
#        55490
#        71071
#        93041
#        109461
#        121665
#
# Disc length: 1981 seconds
#
# Revision: 0
# Processed by: cddbd v1.5.2PL0 Copyright (c) Steve Scherf et al.
# Submitted via: ExactAudioCopy v1.0b1
#
DISCID=6c07bb08
DTITLE=d´Housemusi - in da Haus
DYEAR=2010
DGENRE=Folk/Rock
TTITLE0=final countdown
TTITLE1=hägars tanz
TTITLE2=mercedes benz
TTITLE3=glöckerl aus´m isartal
TTITLE4=privat oder kasse
TTITLE5=easy
TTITLE6=gneatig, ha?
TTITLE7=nothing else matters
EXTD=
EXTT0=
EXTT1=
EXTT2=
EXTT3=
EXTT4=
EXTT5=
EXTT6=
EXTT7=
PLAYORDER=
